<svg width="160" height="40" viewBox="0 0 160 40" fill="none" xmlns="http://www.w3.org/2000/svg">
<path fill-rule="evenodd" clip-rule="evenodd" d="M38.8948 12.4439C42.5669 15.3057 44.3763 19.2634 44.4423 23.8208C44.486 26.8382 43.9534 29.8039 42.5865 32.4098C41.8994 33.58 41.0319 34.6699 39.9597 35.6485C36.4979 38.8085 31.8524 39.9288 27.1082 39.9966C22.364 40.0644 17.6881 39.0774 14.1362 36.0178C12.5676 34.6666 11.4091 33.0786 10.5909 31.3422C8.83853 31.4468 7.04232 30.9397 5.55219 29.7794L5.55016 29.7778C1.87806 26.916 0.0686325 22.9584 0.00265147 18.4009C-0.0410323 15.3836 0.491876 12.4173 1.85875 9.81139C2.5459 8.6412 3.41308 7.55188 4.48522 6.57324C7.94708 3.41329 12.5925 2.293 17.3367 2.22516C22.0809 2.15733 26.7569 3.14433 30.3088 6.20399C31.8773 7.55514 33.0358 9.14314 33.854 10.8795C35.6064 10.7749 37.4026 11.2821 38.8928 12.4423L38.8948 12.4439ZM7.97049 18.1791C7.97049 20.2905 8.63401 21.769 10.123 22.9739C10.7912 23.5147 10.8971 24.5008 10.3567 25.1729C9.81619 25.8449 8.83649 25.9496 8.16674 25.4073C5.93945 23.6022 4.85539 21.2392 4.85539 18.1791C4.85539 10.7602 9.05455 6.99843 17.3423 6.99843C25.63 6.99843 29.8307 10.7602 29.8307 18.1791C29.8307 21.2485 28.7467 23.6131 26.5162 25.4089C26.2297 25.6402 25.8854 25.7527 25.5428 25.7527C25.088 25.7527 24.6347 25.5526 24.3279 25.1682C23.789 24.4946 23.8965 23.51 24.5678 22.9708C26.0537 21.7737 26.7172 20.2952 26.7172 18.1791C26.7172 14.1954 25.6035 10.1241 17.3438 10.1241C9.08414 10.1241 7.97049 14.1969 7.97049 18.1791ZM33.6202 16.9569C34.1607 16.2865 35.1404 16.1786 35.8102 16.7225V16.721C38.0375 18.526 39.1215 20.8891 39.1215 23.9492C39.1215 31.368 34.9208 35.1298 26.6331 35.1298C18.3453 35.1298 14.1446 31.368 14.1446 23.9492C14.1446 20.8797 15.2287 18.5151 17.4591 16.7194C18.1288 16.1786 19.1101 16.2849 19.649 16.9601C20.1879 17.6337 20.0805 18.6183 19.4091 19.1574C17.9232 20.3546 17.2597 21.833 17.2597 23.9492C17.2597 27.9329 18.3734 32.0041 26.6331 32.0041C34.8928 32.0041 36.0064 27.9313 36.0064 23.9492C36.0064 21.8377 35.3429 20.3593 33.8539 19.1543C33.1857 18.6136 33.0798 17.629 33.6202 16.9569Z" fill="#2C46B1"/>
<path d="M68.4182 14.0446C69.8701 14.0446 71.1664 14.418 72.3071 15.1646C73.4686 15.8906 74.3812 16.8965 75.0449 18.1824C75.7294 19.4684 76.0716 20.9617 76.0716 22.6624C76.0716 24.3632 75.7294 25.8669 75.0449 27.1736C74.3812 28.4595 73.479 29.4758 72.3382 30.2225C71.2182 30.9484 69.9531 31.3114 68.5427 31.3114C67.713 31.3114 66.9353 31.1765 66.2093 30.9069C65.4834 30.6373 64.8404 30.2951 64.2804 29.8802C63.7412 29.4654 63.316 29.0506 63.0049 28.6358C62.7145 28.2002 62.5693 27.8373 62.5693 27.5469L63.5338 27.1425V29.4136C63.5338 29.9528 63.3575 30.4091 63.0049 30.7825C62.6523 31.1351 62.2064 31.3114 61.6671 31.3114C61.1278 31.3114 60.6819 31.1351 60.3293 30.7825C59.9767 30.4299 59.8004 29.9736 59.8004 29.4136V9.87573C59.8004 9.33647 59.9767 8.89054 60.3293 8.53794C60.6819 8.16461 61.1278 7.97794 61.6671 7.97794C62.2064 7.97794 62.6523 8.16461 63.0049 8.53794C63.3575 8.89054 63.5338 9.33647 63.5338 9.87573V17.778L63.0049 17.498C63.0049 17.2283 63.1501 16.9069 63.4404 16.5335C63.7308 16.1395 64.1249 15.7557 64.6227 15.3824C65.1204 14.9883 65.6908 14.6669 66.3338 14.418C66.9975 14.1691 67.6923 14.0446 68.4182 14.0446ZM67.9516 17.4669C67.039 17.4669 66.2404 17.695 65.556 18.1513C64.8716 18.6076 64.3323 19.2298 63.9382 20.018C63.5649 20.7854 63.3782 21.6669 63.3782 22.6624C63.3782 23.6373 63.5649 24.5291 63.9382 25.338C64.3323 26.1262 64.8716 26.7484 65.556 27.2047C66.2404 27.661 67.039 27.8891 67.9516 27.8891C68.8642 27.8891 69.6523 27.661 70.316 27.2047C71.0005 26.7484 71.5294 26.1262 71.9027 25.338C72.2968 24.5291 72.4938 23.6373 72.4938 22.6624C72.4938 21.6669 72.2968 20.7854 71.9027 20.018C71.5294 19.2298 71.0005 18.6076 70.316 18.1513C69.6523 17.695 68.8642 17.4669 67.9516 17.4669ZM81.2028 31.0002C80.6635 31.0002 80.2176 30.8239 79.865 30.4714C79.5124 30.098 79.3361 29.6417 79.3361 29.1025V16.2535C79.3361 15.7143 79.5124 15.2683 79.865 14.9157C80.2176 14.5424 80.6635 14.3557 81.2028 14.3557C81.742 14.3557 82.1879 14.5424 82.5405 14.9157C82.8931 15.2683 83.0694 15.7143 83.0694 16.2535V19.178L82.8517 17.0935C83.0798 16.5957 83.3702 16.1602 83.7228 15.7869C84.0961 15.3928 84.5109 15.0713 84.9672 14.8224C85.4235 14.5528 85.9109 14.3557 86.4294 14.2313C86.948 14.1069 87.4665 14.0446 87.985 14.0446C88.6072 14.0446 89.1257 14.2209 89.5406 14.5735C89.9761 14.9261 90.1939 15.3409 90.1939 15.818C90.1939 16.5024 90.0176 17.0002 89.665 17.3113C89.3124 17.6017 88.9287 17.7469 88.5139 17.7469C88.1198 17.7469 87.7569 17.6743 87.425 17.5291C87.1139 17.3839 86.7509 17.3113 86.3361 17.3113C85.9628 17.3113 85.5791 17.4046 85.185 17.5913C84.8117 17.7572 84.4591 18.0269 84.1272 18.4002C83.8161 18.7735 83.5568 19.2402 83.3494 19.8002C83.1628 20.3395 83.0694 20.9824 83.0694 21.7291V29.1025C83.0694 29.6417 82.8931 30.098 82.5405 30.4714C82.1879 30.8239 81.742 31.0002 81.2028 31.0002ZM99.967 31.3114C98.204 31.3114 96.6692 30.9484 95.3625 30.2225C94.0766 29.4758 93.081 28.4699 92.3758 27.2047C91.6914 25.9395 91.3491 24.5084 91.3491 22.9113C91.3491 21.0447 91.7225 19.458 92.4692 18.1513C93.2366 16.8239 94.2321 15.8076 95.4558 15.1024C96.6795 14.3972 97.9758 14.0446 99.3447 14.0446C100.403 14.0446 101.398 14.2624 102.331 14.698C103.285 15.1335 104.125 15.735 104.851 16.5024C105.577 17.2491 106.148 18.1202 106.563 19.1158C106.998 20.1113 107.216 21.1691 107.216 22.2891C107.195 22.7869 106.998 23.1913 106.625 23.5024C106.251 23.8136 105.816 23.9691 105.318 23.9691H93.4336L92.5003 20.858H103.918L103.234 21.4802V20.6402C103.192 20.0387 102.974 19.4995 102.58 19.0224C102.207 18.5454 101.73 18.1721 101.149 17.9024C100.589 17.612 99.9877 17.4669 99.3447 17.4669C98.7225 17.4669 98.1418 17.5498 97.6025 17.7158C97.0632 17.8817 96.5966 18.1617 96.2025 18.5558C95.8084 18.9498 95.4973 19.4787 95.2692 20.1424C95.041 20.8061 94.9269 21.6461 94.9269 22.6624C94.9269 23.7824 95.1551 24.7365 95.6114 25.5247C96.0884 26.2921 96.6899 26.8832 97.4158 27.298C98.1625 27.6921 98.9507 27.8891 99.7803 27.8891C100.548 27.8891 101.16 27.8269 101.616 27.7025C102.072 27.578 102.435 27.4328 102.705 27.2669C102.995 27.0802 103.254 26.9247 103.483 26.8002C103.856 26.6136 104.208 26.5202 104.54 26.5202C104.997 26.5202 105.37 26.6758 105.66 26.9869C105.971 27.298 106.127 27.661 106.127 28.0758C106.127 28.6358 105.837 29.1439 105.256 29.6002C104.717 30.0565 103.96 30.461 102.985 30.8136C102.01 31.1454 101.004 31.3114 99.967 31.3114ZM111.072 14.3557C111.467 14.3557 111.829 14.4594 112.161 14.6669C112.493 14.8535 112.742 15.1439 112.908 15.538L117.481 25.9913L116.797 26.3025L121.464 15.5691C121.816 14.7394 122.366 14.3454 123.112 14.3869C123.631 14.3869 124.046 14.5528 124.357 14.8846C124.689 15.1957 124.855 15.5898 124.855 16.0669C124.855 16.212 124.824 16.3676 124.761 16.5335C124.72 16.6995 124.668 16.855 124.606 17.0002L118.788 29.818C118.456 30.5647 117.927 30.9588 117.201 31.0002C116.807 31.0625 116.424 30.9899 116.05 30.7825C115.698 30.5751 115.428 30.2536 115.241 29.818L109.455 17.0002C109.413 16.8965 109.361 16.7617 109.299 16.5957C109.258 16.4298 109.237 16.2328 109.237 16.0046C109.237 15.6313 109.403 15.2683 109.735 14.9157C110.067 14.5424 110.512 14.3557 111.072 14.3557ZM129.444 30.9691C128.843 30.9691 128.376 30.8136 128.044 30.5025C127.733 30.1706 127.578 29.7039 127.578 29.1025V28.5736C127.578 27.9721 127.733 27.5158 128.044 27.2047C128.376 26.8728 128.843 26.7069 129.444 26.7069H129.849C130.45 26.7069 130.907 26.8728 131.218 27.2047C131.55 27.5158 131.715 27.9721 131.715 28.5736V29.1025C131.715 29.7039 131.55 30.1706 131.218 30.5025C130.907 30.8136 130.45 30.9691 129.849 30.9691H129.444ZM139.587 29.1025C139.587 29.6417 139.401 30.098 139.027 30.4714C138.675 30.8239 138.229 31.0002 137.69 31.0002C137.171 31.0002 136.735 30.8239 136.383 30.4714C136.03 30.098 135.854 29.6417 135.854 29.1025V9.87573C135.854 9.33647 136.03 8.89054 136.383 8.53794C136.756 8.16461 137.213 7.97794 137.752 7.97794C138.291 7.97794 138.727 8.16461 139.058 8.53794C139.411 8.89054 139.587 9.33647 139.587 9.87573V29.1025ZM155.824 14.3557C156.363 14.3557 156.809 14.5424 157.162 14.9157C157.514 15.2683 157.69 15.7143 157.69 16.2535V29.4758C157.69 31.3839 157.327 32.898 156.602 34.018C155.896 35.1588 154.942 35.978 153.739 36.4758C152.536 36.9736 151.188 37.2225 149.695 37.2225C149.031 37.2225 148.326 37.1706 147.579 37.0669C146.833 36.9632 146.221 36.8077 145.744 36.6003C145.121 36.3306 144.686 35.9884 144.437 35.5736C144.209 35.1795 144.167 34.7543 144.313 34.298C144.499 33.6965 144.8 33.2817 145.215 33.0536C145.63 32.8462 146.065 32.8254 146.521 32.9914C146.853 33.0951 147.289 33.2506 147.828 33.458C148.367 33.6862 148.99 33.8003 149.695 33.8003C150.649 33.8003 151.437 33.6654 152.059 33.3958C152.702 33.1469 153.179 32.7114 153.49 32.0891C153.822 31.4877 153.988 30.658 153.988 29.6002V27.5158L154.642 28.2625C154.289 28.9469 153.843 29.5173 153.304 29.9736C152.785 30.4091 152.163 30.741 151.437 30.9691C150.711 31.1973 149.881 31.3114 148.948 31.3114C147.849 31.3114 146.884 31.0625 146.055 30.5647C145.246 30.0462 144.613 29.341 144.157 28.4491C143.701 27.5365 143.473 26.4995 143.473 25.338V16.2535C143.473 15.7143 143.649 15.2683 144.001 14.9157C144.354 14.5424 144.8 14.3557 145.339 14.3557C145.879 14.3557 146.324 14.5424 146.677 14.9157C147.03 15.2683 147.206 15.7143 147.206 16.2535V24.218C147.206 25.5662 147.496 26.5202 148.077 27.0802C148.679 27.6195 149.508 27.8891 150.566 27.8891C151.292 27.8891 151.904 27.7543 152.402 27.4847C152.899 27.1943 153.283 26.7795 153.553 26.2402C153.822 25.6802 153.957 25.0061 153.957 24.218V16.2535C153.957 15.7143 154.133 15.2683 154.486 14.9157C154.839 14.5424 155.284 14.3557 155.824 14.3557Z" fill="#2C46B1"/>
</svg>
